<svg xmlns="http://www.w3.org/2000/svg" xmlns:xlink="http://www.w3.org/1999/xlink" width="40" zoomAndPan="magnify" viewBox="0 0 30 30.000001" height="40" preserveAspectRatio="xMidYMid meet" version="1.0"><defs><clipPath id="id1"><path d="M 2.042969 1.558594 L 28.171875 1.558594 L 28.171875 27.691406 L 2.042969 27.691406 Z M 2.042969 1.558594 " clip-rule="nonzero"/></clipPath></defs><g clip-path="url(#id1)"><path fill="rgb(98.81897%, 69.40918%, 22.349548%)" d="M 15.109375 25.515625 C 9.105469 25.515625 4.21875 20.628906 4.21875 14.625 C 4.21875 8.621094 9.105469 3.734375 15.109375 3.734375 C 21.113281 3.734375 26 8.621094 26 14.625 C 26 20.628906 21.113281 25.515625 15.109375 25.515625 Z M 15.109375 1.558594 C 7.90625 1.558594 2.042969 7.421875 2.042969 14.625 C 2.042969 21.828125 7.90625 27.691406 15.109375 27.691406 C 22.3125 27.691406 28.171875 21.828125 28.171875 14.625 C 28.171875 7.421875 22.3125 1.558594 15.109375 1.558594 " fill-opacity="1" fill-rule="nonzero"/></g><path fill="rgb(98.81897%, 69.40918%, 22.349548%)" d="M 9.949219 10.949219 L 7.179688 10.949219 C 7.03125 10.949219 6.910156 11.070312 6.910156 11.21875 L 6.910156 12.722656 C 6.910156 12.871094 7.03125 12.992188 7.179688 12.992188 L 7.90625 12.992188 L 7.90625 18.039062 C 7.90625 18.191406 8.027344 18.3125 8.175781 18.3125 L 9.949219 18.3125 C 10.097656 18.3125 10.222656 18.191406 10.222656 18.039062 L 10.222656 11.21875 C 10.222656 11.070312 10.097656 10.949219 9.949219 10.949219 " fill-opacity="1" fill-rule="nonzero"/><path fill="rgb(98.81897%, 69.40918%, 22.349548%)" d="M 13.929688 15.976562 C 13.929688 15.824219 13.980469 15.703125 14.085938 15.59375 C 14.191406 15.484375 14.316406 15.433594 14.472656 15.433594 C 14.621094 15.433594 14.746094 15.484375 14.851562 15.59375 C 14.960938 15.703125 15.011719 15.828125 15.011719 15.984375 C 15.011719 16.066406 15 16.136719 14.972656 16.199219 C 14.941406 16.269531 14.90625 16.328125 14.855469 16.378906 C 14.800781 16.429688 14.742188 16.472656 14.671875 16.503906 C 14.535156 16.5625 14.386719 16.558594 14.261719 16.503906 C 14.195312 16.472656 14.136719 16.433594 14.089844 16.382812 C 14.039062 16.332031 14 16.269531 13.972656 16.199219 C 13.941406 16.128906 13.929688 16.058594 13.929688 15.976562 Z M 14.128906 12.625 C 14.222656 12.53125 14.332031 12.484375 14.472656 12.484375 C 14.609375 12.484375 14.71875 12.53125 14.8125 12.625 C 14.90625 12.722656 14.949219 12.832031 14.949219 12.964844 C 14.949219 13.023438 14.9375 13.082031 14.914062 13.136719 C 14.886719 13.199219 14.851562 13.25 14.808594 13.296875 C 14.765625 13.34375 14.714844 13.378906 14.65625 13.40625 C 14.601562 13.433594 14.539062 13.445312 14.472656 13.445312 C 14.332031 13.445312 14.226562 13.398438 14.132812 13.304688 C 14.035156 13.207031 13.992188 13.097656 13.992188 12.957031 C 13.992188 12.824219 14.035156 12.71875 14.128906 12.625 Z M 16.28125 14.425781 C 16.3125 14.402344 16.34375 14.382812 16.371094 14.363281 C 16.535156 14.242188 16.671875 14.113281 16.773438 13.972656 C 16.882812 13.828125 16.960938 13.664062 17.003906 13.488281 C 17.046875 13.328125 17.066406 13.140625 17.066406 12.9375 C 17.066406 12.609375 17 12.304688 16.867188 12.035156 C 16.738281 11.769531 16.554688 11.539062 16.324219 11.34375 C 16.09375 11.15625 15.816406 11.007812 15.5 10.90625 C 15.1875 10.808594 14.839844 10.757812 14.472656 10.757812 C 14.101562 10.757812 13.753906 10.808594 13.445312 10.90625 C 13.125 11.007812 12.847656 11.15625 12.621094 11.347656 C 12.386719 11.539062 12.207031 11.769531 12.074219 12.035156 C 11.941406 12.304688 11.875 12.609375 11.875 12.9375 C 11.875 13.566406 12.128906 14.070312 12.621094 14.421875 C 11.9375 14.824219 11.59375 15.417969 11.59375 16.195312 C 11.59375 16.535156 11.671875 16.851562 11.824219 17.136719 C 11.976562 17.417969 12.1875 17.664062 12.453125 17.867188 C 12.710938 18.066406 13.015625 18.222656 13.363281 18.332031 C 13.703125 18.4375 14.078125 18.492188 14.472656 18.492188 C 14.878906 18.492188 15.257812 18.4375 15.597656 18.324219 C 15.945312 18.214844 16.25 18.054688 16.507812 17.855469 C 16.769531 17.652344 16.976562 17.40625 17.121094 17.125 C 17.273438 16.839844 17.347656 16.527344 17.347656 16.195312 C 17.347656 15.429688 16.988281 14.835938 16.28125 14.425781 " fill-opacity="1" fill-rule="nonzero"/><path fill="rgb(98.81897%, 69.40918%, 22.349548%)" d="M 23.035156 13.777344 L 21.472656 13.777344 L 21.472656 12.207031 C 21.472656 12.054688 21.351562 11.933594 21.199219 11.933594 L 20.042969 11.933594 C 19.894531 11.933594 19.769531 12.054688 19.769531 12.207031 L 19.769531 13.777344 L 18.199219 13.777344 C 18.046875 13.777344 17.925781 13.902344 17.925781 14.050781 L 17.925781 15.207031 C 17.925781 15.359375 18.046875 15.480469 18.199219 15.480469 L 19.769531 15.480469 L 19.769531 17.054688 C 19.769531 17.203125 19.894531 17.324219 20.042969 17.324219 L 21.199219 17.324219 C 21.351562 17.324219 21.472656 17.203125 21.472656 17.054688 L 21.472656 15.480469 L 23.035156 15.480469 C 23.1875 15.480469 23.308594 15.359375 23.308594 15.207031 L 23.308594 14.050781 C 23.308594 13.902344 23.1875 13.777344 23.035156 13.777344 " fill-opacity="1" fill-rule="nonzero"/></svg>