<svg xmlns="http://www.w3.org/2000/svg" xmlns:xlink="http://www.w3.org/1999/xlink" width="40" zoomAndPan="magnify" viewBox="0 0 30 30.000001" height="40" preserveAspectRatio="xMidYMid meet" version="1.0"><defs><clipPath id="id1"><path d="M 7.621094 0.886719 L 22.136719 0.886719 L 22.136719 28.464844 L 7.621094 28.464844 Z M 7.621094 0.886719 " clip-rule="nonzero"/></clipPath></defs><g clip-path="url(#id1)"><path fill="rgb(98.81897%, 69.40918%, 22.349548%)" d="M 15.253906 23.597656 L 15.253906 26.722656 L 14.429688 26.722656 L 14.429688 23.6875 L 13.609375 23.660156 C 12.179688 23.613281 10.664062 23.253906 9.605469 22.722656 L 9.964844 21.433594 C 10.96875 21.910156 12.472656 22.429688 14.230469 22.429688 C 16.683594 22.429688 18.328125 21.078125 18.328125 19.0625 C 18.328125 16.824219 16.355469 15.78125 14.425781 15.054688 C 11.046875 13.796875 9.671875 12.398438 9.671875 10.21875 C 9.671875 7.878906 11.257812 6.191406 13.917969 5.707031 L 14.613281 5.578125 L 14.613281 2.625 L 15.441406 2.625 L 15.441406 5.535156 L 16.261719 5.5625 C 17.476562 5.601562 18.539062 5.816406 19.503906 6.214844 L 19.15625 7.4375 C 17.964844 6.9375 16.769531 6.695312 15.519531 6.695312 C 12.742188 6.695312 11.753906 8.355469 11.753906 9.777344 C 11.753906 11.773438 13.601562 12.691406 16.019531 13.6875 C 19.164062 14.902344 20.445312 16.359375 20.445312 18.714844 C 20.445312 21.191406 18.730469 23.015625 15.964844 23.480469 Z M 20.796875 14.753906 C 19.902344 13.679688 18.539062 12.800781 16.628906 12.0625 C 14.25 11.085938 13.449219 10.507812 13.449219 9.777344 C 13.449219 8.925781 14.203125 8.4375 15.519531 8.4375 C 17.269531 8.4375 18.457031 9.007812 19.167969 9.347656 L 20.230469 9.851562 L 21.535156 5.28125 L 20.902344 4.957031 C 19.722656 4.347656 18.523438 4.003906 17.132812 3.871094 L 17.132812 0.882812 L 12.921875 0.882812 L 12.921875 4.148438 C 11.4375 4.542969 10.203125 5.292969 9.34375 6.320312 C 8.449219 7.386719 7.976562 8.738281 7.976562 10.21875 C 7.976562 13.996094 10.945312 15.609375 13.847656 16.691406 C 16.300781 17.613281 16.636719 18.375 16.636719 19.0625 C 16.636719 20.261719 15.339844 20.6875 14.230469 20.6875 C 12.789062 20.6875 11.199219 20.226562 9.867188 19.421875 L 8.925781 18.851562 L 7.625 23.511719 L 8.140625 23.863281 C 9.222656 24.605469 10.96875 25.167969 12.738281 25.34375 L 12.738281 28.464844 L 16.949219 28.464844 L 16.949219 25.050781 C 18.484375 24.660156 19.777344 23.886719 20.6875 22.800781 C 21.636719 21.671875 22.136719 20.261719 22.136719 18.714844 C 22.136719 17.136719 21.699219 15.839844 20.796875 14.753906 " fill-opacity="1" fill-rule="nonzero"/></g></svg>