<svg xmlns="http://www.w3.org/2000/svg" xmlns:xlink="http://www.w3.org/1999/xlink" width="40" zoomAndPan="magnify" viewBox="0 0 30 30.000001" height="40" preserveAspectRatio="xMidYMid meet" version="1.0"><defs><clipPath id="id1"><path d="M 1.210938 2.554688 L 28.789062 2.554688 L 28.789062 26.503906 L 1.210938 26.503906 Z M 1.210938 2.554688 " clip-rule="nonzero"/></clipPath></defs><g clip-path="url(#id1)"><path fill="rgb(98.81897%, 69.40918%, 22.349548%)" d="M 13.875 3.429688 C 14.375 2.558594 15.625 2.558594 16.125 3.429688 L 28.292969 24.535156 C 28.796875 25.402344 28.167969 26.488281 27.167969 26.488281 L 2.832031 26.488281 C 1.832031 26.488281 1.203125 25.402344 1.707031 24.535156 Z M 15 18.5 C 14.28125 18.503906 13.699219 17.925781 13.699219 17.207031 L 13.695312 12.464844 C 13.695312 11.746094 14.277344 11.15625 14.996094 11.152344 C 15.714844 11.144531 16.296875 11.722656 16.300781 12.441406 L 16.300781 17.183594 C 16.300781 17.902344 15.71875 18.492188 15 18.5 Z M 13.695312 20.996094 C 13.695312 21.714844 14.277344 22.308594 14.996094 22.320312 C 15.714844 22.332031 16.296875 21.757812 16.300781 21.039062 L 16.300781 20.390625 C 16.300781 19.671875 15.722656 19.078125 15.003906 19.066406 C 14.285156 19.054688 13.699219 19.628906 13.699219 20.347656 Z M 13.695312 20.996094 " fill-opacity="1" fill-rule="evenodd"/></g></svg>